<?xml version="1.0" encoding="UTF-8"?>
<svg width="400" height="300" viewBox="0 0 400 300" fill="none" xmlns="http://www.w3.org/2000/svg">
  <!-- Background -->
  <rect width="400" height="300" rx="20" fill="#F3F7FC"/>
  
  <!-- Database representation -->
  <rect x="50" y="200" width="120" height="60" rx="5" fill="#A5C9F2" stroke="#4B88D5" stroke-width="2"/>
  <rect x="60" y="210" width="100" height="10" rx="2" fill="#4B88D5"/>
  <rect x="60" y="225" width="80" height="5" rx="2" fill="#4B88D5"/>
  <rect x="60" y="235" width="90" height="5" rx="2" fill="#4B88D5"/>
  <rect x="60" y="245" width="70" height="5" rx="2" fill="#4B88D5"/>
  
  <!-- Land parcels map -->
  <rect x="200" y="170" width="150" height="90" rx="5" fill="#E9F2FA" stroke="#C1D6EE" stroke-width="2"/>
  <path d="M210 180H340M210 190H340M210 200H340M210 210H340M210 220H340M210 230H340M210 240H340M210 250H340" stroke="#D8E6F6" stroke-width="1"/>
  <path d="M220 180V250M230 180V250M240 180V250M250 180V250M260 180V250M270 180V250M280 180V250M290 180V250M300 180V250M310 180V250M320 180V250M330 180V250" stroke="#D8E6F6" stroke-width="1"/>
  
  <!-- Parcels -->
  <path d="M230 190H270V230H230V190Z" fill="#6EB1F2" fill-opacity="0.6" stroke="#4B88D5" stroke-width="1.5"/>
  <path d="M280 200H320V240H280V200Z" fill="#6EB1F2" fill-opacity="0.6" stroke="#4B88D5" stroke-width="1.5"/>
  <path d="M240 200L260 220L240 240L220 220L240 200Z" fill="#6EB1F2" fill-opacity="0.6" stroke="#4B88D5" stroke-width="1.5"/>
  
  <!-- Web Interface -->
  <rect x="50" y="50" width="300" height="100" rx="5" fill="white" stroke="#C1D6EE" stroke-width="2"/>
  
  <!-- Header bar -->
  <rect x="50" y="50" width="300" height="25" rx="5 5 0 0" fill="#4B88D5"/>
  <circle cx="65" cy="62" r="5" fill="#FF6B6B"/>
  <circle cx="80" cy="62" r="5" fill="#FFD93D"/>
  <circle cx="95" cy="62" r="5" fill="#6BCB77"/>
  
  <!-- Sidebar -->
  <rect x="50" y="75" width="60" height="75" fill="#F0F7FF"/>
  <rect x="60" y="85" width="40" height="5" rx="2" fill="#C1D6EE"/>
  <rect x="60" y="95" width="30" height="5" rx="2" fill="#C1D6EE"/>
  <rect x="60" y="105" width="35" height="5" rx="2" fill="#C1D6EE"/>
  <rect x="60" y="115" width="25" height="5" rx="2" fill="#C1D6EE"/>
  <rect x="60" y="125" width="40" height="5" rx="2" fill="#C1D6EE"/>
  <rect x="60" y="135" width="30" height="5" rx="2" fill="#C1D6EE"/>
  
  <!-- Content -->
  <rect x="125" y="85" width="100" height="10" rx="2" fill="#4B88D5"/>
  <rect x="125" y="105" width="210" height="5" rx="2" fill="#C1D6EE"/>
  <rect x="125" y="115" width="190" height="5" rx="2" fill="#C1D6EE"/>
  <rect x="125" y="125" width="210" height="5" rx="2" fill="#C1D6EE"/>
  <rect x="125" y="135" width="150" height="5" rx="2" fill="#C1D6EE"/>
  
  <!-- Land document -->
  <rect x="250" y="85" width="80" height="50" rx="2" fill="#F0F7FF" stroke="#C1D6EE" stroke-width="1"/>
  <path d="M260 95H320M260 105H300M260 115H310M260 125H290" stroke="#C1D6EE" stroke-width="1"/>
  
  <!-- Connection lines -->
  <path d="M110 210L200 210" stroke="#4B88D5" stroke-width="2" stroke-dasharray="4 2"/>
  <path d="M200 100L180 100L180 170L275 170" stroke="#4B88D5" stroke-width="2" stroke-dasharray="4 2"/>
</svg>