<?xml version="1.0" encoding="UTF-8"?>
<svg width="400" height="300" viewBox="0 0 400 300" fill="none" xmlns="http://www.w3.org/2000/svg">
  <!-- Background -->
  <rect width="400" height="300" rx="20" fill="#F3F7FC"/>
  
  <!-- Map grid -->
  <path d="M50 50H350M50 100H350M50 150H350M50 200H350M50 250H350M50 50V250M100 50V250M150 50V250M200 50V250M250 50V250M300 50V250M350 50V250" stroke="#C1D6EE" stroke-width="1"/>
  
  <!-- Digital map elements -->
  <rect x="100" y="100" width="50" height="50" fill="#A5C9F2" fill-opacity="0.6" stroke="#4B88D5" stroke-width="2"/>
  <rect x="200" y="150" width="100" height="50" fill="#A5F2C3" fill-opacity="0.6" stroke="#4BD59B" stroke-width="2"/>
  <path d="M150 100L200 150L250 100L300 200" stroke="#E66A64" stroke-width="3" stroke-linecap="round" stroke-linejoin="round"/>
  
  <!-- Compass -->
  <circle cx="300" cy="80" r="20" fill="white" stroke="#4B88D5" stroke-width="1"/>
  <path d="M300 60L300 100M280 80L320 80" stroke="#4B88D5" stroke-width="1"/>
  <path d="M300 60L305 80L300 75L295 80L300 60Z" fill="#E66A64"/>
  
  <!-- Cursor/digitizing tool -->
  <circle cx="150" cy="200" r="5" fill="#4B88D5"/>
  <path d="M150 200L180 170" stroke="#4B88D5" stroke-width="2"/>
  <path d="M180 170L195 185L205 165" stroke="#E66A64" stroke-width="2" stroke-dasharray="4 2"/>
  
  <!-- Legend -->
  <rect x="70" y="220" width="10" height="10" fill="#A5C9F2" fill-opacity="0.6" stroke="#4B88D5" stroke-width="1"/>
  <text x="85" y="230" font-family="Arial" font-size="10" fill="#333">Parcels</text>
  
  <rect x="130" y="220" width="10" height="10" fill="#A5F2C3" fill-opacity="0.6" stroke="#4BD59B" stroke-width="1"/>
  <text x="145" y="230" font-family="Arial" font-size="10" fill="#333">Buildings</text>
  
  <line x1="190" y1="225" x2="210" y2="225" stroke="#E66A64" stroke-width="2"/>
  <text x="215" y="230" font-family="Arial" font-size="10" fill="#333">Roads</text>
</svg>