<?xml version="1.0" encoding="UTF-8"?>
<svg width="400" height="300" viewBox="0 0 400 300" fill="none" xmlns="http://www.w3.org/2000/svg">
  <!-- Background -->
  <rect width="400" height="300" rx="20" fill="#F3F7FC"/>
  
  <!-- Website frame -->
  <rect x="65" y="50" width="270" height="200" rx="8" fill="white" stroke="#C1D6EE" stroke-width="2"/>
  
  <!-- Browser header -->
  <rect x="65" y="50" width="270" height="26" rx="8 8 0 0" fill="#F0F7FF"/>
  <circle cx="80" cy="63" r="5" fill="#FF6B6B"/>
  <circle cx="97" cy="63" r="5" fill="#FFD93D"/>
  <circle cx="114" cy="63" r="5" fill="#6BCB77"/>
  <rect x="135" y="56" width="150" height="14" rx="7" fill="#E1ECF9"/>
  <rect x="300" y="56" width="20" height="14" rx="4" fill="#E1ECF9"/>
  
  <!-- Navigation -->
  <rect x="85" y="86" width="230" height="16" rx="3" fill="#F0F7FF"/>
  <rect x="95" y="92" width="30" height="4" rx="2" fill="#4B88D5"/>
  <rect x="145" y="92" width="30" height="4" rx="2" fill="#C1D6EE"/>
  <rect x="195" y="92" width="30" height="4" rx="2" fill="#C1D6EE"/>
  <rect x="245" y="92" width="30" height="4" rx="2" fill="#C1D6EE"/>
  
  <!-- Profile Section -->
  <rect x="85" y="112" width="80" height="80" rx="40" fill="#6EB1F2" fill-opacity="0.2"/>
  <circle cx="125" cy="152" r="30" fill="#4B88D5"/>
  
  <!-- Name and title -->
  <rect x="175" y="122" width="140" height="10" rx="2" fill="#4B88D5"/>
  <rect x="175" y="142" width="90" height="6" rx="2" fill="#C1D6EE"/>
  <rect x="175" y="152" width="110" height="6" rx="2" fill="#C1D6EE"/>
  <rect x="175" y="162" width="70" height="6" rx="2" fill="#C1D6EE"/>
  
  <!-- Project cards -->
  <rect x="85" y="202" width="70" height="38" rx="3" fill="#F0F7FF"/>
  <rect x="90" y="207" width="60" height="20" rx="2" fill="#6EB1F2" fill-opacity="0.3"/>
  <rect x="90" y="230" width="40" height="4" rx="1" fill="#C1D6EE"/>
  
  <rect x="165" y="202" width="70" height="38" rx="3" fill="#F0F7FF"/>
  <rect x="170" y="207" width="60" height="20" rx="2" fill="#6EB1F2" fill-opacity="0.3"/>
  <rect x="170" y="230" width="40" height="4" rx="1" fill="#C1D6EE"/>
  
  <rect x="245" y="202" width="70" height="38" rx="3" fill="#F0F7FF"/>
  <rect x="250" y="207" width="60" height="20" rx="2" fill="#6EB1F2" fill-opacity="0.3"/>
  <rect x="250" y="230" width="40" height="4" rx="1" fill="#C1D6EE"/>
</svg>