<?xml version="1.0" encoding="UTF-8"?>
<svg width="400" height="300" viewBox="0 0 400 300" fill="none" xmlns="http://www.w3.org/2000/svg">
  <!-- Background -->
  <rect width="400" height="300" rx="20" fill="#F3F7FC"/>
  
  <!-- Map background with subtle grid -->
  <rect x="50" y="50" width="300" height="200" fill="#E9F2FA" stroke="#C1D6EE" stroke-width="1"/>
  <path d="M50 90H350M50 130H350M50 170H350M50 210H350M90 50V250M130 50V250M170 50V250M210 50V250M250 50V250M290 50V250M330 50V250" stroke="#D8E6F6" stroke-width="1"/>
  
  <!-- Roads/Streets -->
  <path d="M70 70L150 70L150 120L240 120L240 230" stroke="#B0B0B0" stroke-width="6" stroke-linecap="round" stroke-linejoin="round"/>
  <path d="M70 170L330 170" stroke="#B0B0B0" stroke-width="6" stroke-linecap="round" stroke-linejoin="round"/>
  <path d="M330 70L250 70L250 230" stroke="#B0B0B0" stroke-width="6" stroke-linecap="round" stroke-linejoin="round"/>
  
  <!-- Optimal route -->
  <path d="M70 70L150 70L150 120L240 120L240 170L330 170" stroke="#3A86FF" stroke-width="3" stroke-linecap="round" stroke-linejoin="round"/>
  
  <!-- Alternative route -->
  <path d="M70 70L70 170L330 170" stroke="#FF006E" stroke-width="2" stroke-linecap="round" stroke-linejoin="round" stroke-dasharray="5 3"/>
  
  <!-- Start point -->
  <circle cx="70" cy="70" r="8" fill="#4CC17F" stroke="white" stroke-width="2"/>
  <circle cx="70" cy="70" r="4" fill="white"/>
  
  <!-- End point -->
  <circle cx="330" cy="170" r="8" fill="#E3405F" stroke="white" stroke-width="2"/>
  <circle cx="330" cy="170" r="4" fill="white"/>
  
  <!-- Waypoint -->
  <circle cx="240" cy="120" r="6" fill="#FFB830" stroke="white" stroke-width="2"/>
  
  <!-- Points of Interest -->
  <circle cx="150" cy="70" r="5" fill="#5271FF"/>
  <circle cx="250" cy="70" r="5" fill="#5271FF"/>
  <circle cx="150" cy="230" r="5" fill="#5271FF"/>
  <circle cx="240" cy="230" r="5" fill="#5271FF"/>
  
  <!-- Navigation UI Elements -->
  <rect x="290" y="60" width="40" height="40" rx="5" fill="white" stroke="#C1D6EE" stroke-width="1"/>
  <path d="M295 80H325M310 65V95" stroke="#5271FF" stroke-width="2"/>
  
  <!-- Distance indicator -->
  <rect x="140" y="140" width="60" height="20" rx="10" fill="white" stroke="#3A86FF" stroke-width="1"/>
  <text x="155" y="155" font-family="Arial" font-size="10" fill="#3A86FF" font-weight="bold">3.2 km</text>
  
  <!-- Time indicator -->
  <rect x="270" y="190" width="60" height="20" rx="10" fill="white" stroke="#FF006E" stroke-width="1"/>
  <text x="282" y="205" font-family="Arial" font-size="10" fill="#FF006E" font-weight="bold">12 min</text>
</svg>